<?xml version="1.0" encoding="UTF-8" standalone="no"?>
<!-- Created with Inkscape (http://www.inkscape.org/) -->

<svg
   xmlns:dc="http://purl.org/dc/elements/1.1/"
   xmlns:cc="http://creativecommons.org/ns#"
   xmlns:rdf="http://www.w3.org/1999/02/22-rdf-syntax-ns#"
   xmlns:svg="http://www.w3.org/2000/svg"
   xmlns="http://www.w3.org/2000/svg"
   xmlns:sodipodi="http://sodipodi.sourceforge.net/DTD/sodipodi-0.dtd"
   xmlns:inkscape="http://www.inkscape.org/namespaces/inkscape"
   width="520"
   height="759.16876"
   id="svg2"
   version="1.1"
   inkscape:version="0.48.2 r9819"
   sodipodi:docname="logo.svg">
  <defs
     id="defs4" />
  <sodipodi:namedview
     id="base"
     pagecolor="#ffffff"
     bordercolor="#666666"
     borderopacity="1.0"
     inkscape:pageopacity="0.0"
     inkscape:pageshadow="2"
     inkscape:zoom="0.57"
     inkscape:cx="258.43789"
     inkscape:cy="418.37719"
     inkscape:document-units="px"
     inkscape:current-layer="layer1"
     showgrid="false"
     fit-margin-top="10"
     fit-margin-left="10"
     fit-margin-right="10"
     fit-margin-bottom="10"
     inkscape:window-width="1280"
     inkscape:window-height="700"
     inkscape:window-x="33"
     inkscape:window-y="0"
     inkscape:window-maximized="0" />
  <metadata
     id="metadata7">
    <rdf:RDF>
      <cc:Work
         rdf:about="">
        <dc:format>image/svg+xml</dc:format>
        <dc:type
           rdf:resource="http://purl.org/dc/dcmitype/StillImage" />
      </cc:Work>
    </rdf:RDF>
  </metadata>
  <g
     inkscape:label="Layer 1"
     inkscape:groupmode="layer"
     id="layer1"
     transform="translate(-120.16504,447.92267)">
    <text
       xml:space="preserve"
       style="font-size:219.2910614px;font-style:normal;font-variant:normal;font-weight:normal;font-stretch:normal;line-height:125%;letter-spacing:0px;word-spacing:0px;fill:#000000;fill-opacity:1;stroke:none;font-family:Anonymous Pro;-inkscape-font-specification:Anonymous Pro"
       x="127.94821"
       y="299.5329"
       id="text2985"
       sodipodi:linespacing="125%"><tspan
         sodipodi:role="line"
         id="tspan2987"
         x="127.94821"
         y="299.5329"
         style="font-style:normal;font-variant:normal;font-weight:normal;font-stretch:normal;font-family:Gill Sans MT;-inkscape-font-specification:Gill Sans MT">Lunio</tspan></text>
    <g
       id="g3039"
       transform="matrix(5.4822766,0,0,5.4822766,106.05018,-451.52985)">
	<path
   id="path3041"
   d="m 44.258,97.516 c -0.052,0 -0.134,0.009 -0.146,-0.007 h -0.003 -0.003 l 0,0 c -0.18,-0.018 -0.36,-0.066 -0.527,-0.149 l 0,0 C 43.573,97.357 43.57,97.354 43.564,97.351 l 0,0 H 43.561 L 20.581,85.863 C 20.307,85.725 20.078,85.509 19.922,85.24 L 4.604,58.435 C 4.427,58.121 4.366,57.767 4.415,57.432 L 8.243,30.629 C 8.285,30.342 8.405,30.07 8.591,29.848 L 27.733,6.882 c 0.034,-0.045 0.073,-0.085 0.113,-0.125 l 0,0 0.003,-0.003 c 0,0 0,0 0.003,-0.003 0,0 -0.003,0.003 0.006,-0.006 l 0,0 c 0.003,0 0.003,-0.003 0.003,-0.003 0,0 0,0 0.003,0 0.049,-0.049 0.101,-0.091 0.156,-0.131 0.003,-0.003 0.003,-0.003 0.003,-0.003 0,0 0.003,0 0.003,-0.003 0,0 0,0 0.003,0 0,0 0,0 0.003,-0.003 0,0 0,0 0.003,-0.003 0,0 0,0 0.003,0 0,0 0,-0.003 0.003,-0.003 l 0,0 c 0.162,-0.113 0.345,-0.198 0.543,-0.244 l 0,0 c 0.003,0 0.003,0 0.006,0 h 0.003 c 0.003,-0.003 0.003,-0.003 0.003,-0.003 0,0 0.003,0 0.006,0 l 0,0 C 28.642,6.34 28.681,6.334 28.724,6.328 L 55.526,2.497 C 55.77,2.463 56.014,2.488 56.24,2.561 l 22.975,7.661 c 0.345,0.113 0.652,0.351 0.851,0.686 0.006,0.009 0.013,0.016 0.016,0.024 l 15.316,26.802 c 0.167,0.293 0.234,0.634 0.191,0.97 l -3.83,30.636 0,0 c 0,0.003 0,0.003 0,0.003 0,0.003 0,0.003 0,0.003 v 0.003 c -0.003,0.004 -0.003,0.007 -0.003,0.007 v 0.003 c 0,0 0,0 0,0.003 l 0,0 c 0,0.003 0,0.003 0,0.006 l 0,0 C 91.722,69.597 91.64,69.81 91.518,70 l 0,0 c -0.006,0.006 -0.009,0.012 -0.012,0.015 0,0 0,0 0,0.003 0,0 -0.004,0 -0.004,0.003 l 0,0 c -0.003,0.004 -0.003,0.004 -0.003,0.007 h -0.003 c 0,0.003 0,0.003 0,0.003 0,0.003 -0.003,0.003 -0.003,0.003 v 0.003 H 91.49 c 0,0.003 -0.003,0.006 -0.003,0.009 l 0,0 c 0,0 -0.003,0 -0.003,0.004 l 0,0 c -0.003,0 -0.003,0.003 -0.003,0.003 0,0 -0.007,0.006 -0.01,0.012 l 0,0 c 0,0.003 0,0.003 -0.003,0.003 v 0.003 c -0.003,0.004 -0.006,0.007 -0.009,0.01 l 0,0 c 0,0.003 -0.007,0.006 -0.003,0.006 -0.016,0.021 -0.034,0.043 -0.049,0.064 L 72.261,93.124 c -0.247,0.295 -0.595,0.49 -0.979,0.546 L 44.483,97.5 c -0.019,0 -0.037,0.003 -0.055,0.006 h -0.003 c 0,0 0,0 -0.003,0 h -0.003 -0.003 -0.003 c -0.003,0.003 -0.003,0.003 -0.003,0.003 0,0 -0.003,0 -0.006,0 l 0,0 c -0.049,0.004 -0.097,0.007 -0.146,0.007 z M 45.819,66.349 V 94.155 L 70.248,90.663 87.989,69.369 70.821,55.632 45.819,66.349 z m -23.42,16.929 20.297,10.15 V 66.05 L 21.225,48.159 8.001,58.081 22.399,83.278 z M 72.472,52.954 89.005,66.184 92.427,38.832 78.102,13.763 65.195,20.213 72.472,52.954 z M 23.226,45.759 44.523,63.507 69.26,52.905 62.114,20.756 37.49,17.236 23.226,45.759 z M 11.271,31.507 8.041,54.15 20.045,45.14 34.696,15.84 29.042,10.186 11.271,31.507 z m 26.061,-17.448 25.81,3.69 11.511,-5.755 -19.05,-6.353 -23.353,3.337 5.082,5.081 z"
   inkscape:connector-curvature="0" />

</g>
  </g>
</svg>
